# xmcd
#
# Track frame offsets:
#	150
#	30875
#	62882
#	97847
#	129704
#	159153
#	182789
#	208829
#	291851
#
# Disc length: 4291 seconds
#
# Revision: 1
# Processed by: cddbd v1.5.2PL0 Copyright (c) Steve Scherf et al.
# Submitted via: audiograbber 1.83.01
#
DISCID=7710c109
DTITLE=Mark Knopfler and E.C. - Live in Apollo 87
DYEAR=1987
DGENRE=Rock
TTITLE0=Crossroads
TTITLE1=White Room
TTITLE2=I Shot the Sheriff
TTITLE3=I Wanna Make Love to You
TTITLE4=Take A Chance
TTITLE5=Hung up on Your Love
TTITLE6=Miss You
TTITLE7=Same old Blues
TTITLE8=Tearing Us Apart
EXTD=
EXTT0=
EXTT1=
EXTT2=
EXTT3=
EXTT4=
EXTT5=
EXTT6=
EXTT7=
EXTT8=
PLAYORDER=
